<svg width="141" height="25" viewBox="0 0 141 25" fill="none" xmlns="http://www.w3.org/2000/svg">
<path d="M8.46094 4.85547L3.82031 19H0.0820312L6.42188 1.9375H8.80078L8.46094 4.85547ZM12.3164 19L7.66406 4.85547L7.28906 1.9375H9.69141L16.0664 19H12.3164ZM12.1055 12.6484V15.4023H3.09375V12.6484H12.1055ZM21.7383 19H18.3398V5.19531C18.3398 4.23438 18.5273 3.42578 18.9023 2.76953C19.2852 2.10547 19.8203 1.60547 20.5078 1.26953C21.2031 0.925781 22.0273 0.753906 22.9805 0.753906C23.293 0.753906 23.5938 0.777344 23.8828 0.824219C24.1719 0.863281 24.4531 0.914063 24.7266 0.976562L24.6914 3.51953C24.543 3.48047 24.3867 3.45312 24.2227 3.4375C24.0586 3.42188 23.8672 3.41406 23.6484 3.41406C23.2422 3.41406 22.8945 3.48438 22.6055 3.625C22.3242 3.75781 22.1094 3.95703 21.9609 4.22266C21.8125 4.48828 21.7383 4.8125 21.7383 5.19531V19ZM24.2695 6.32031V8.71094H16.4531V6.32031H24.2695ZM30.3398 19H26.9414V5.19531C26.9414 4.23438 27.1289 3.42578 27.5039 2.76953C27.8867 2.10547 28.4219 1.60547 29.1094 1.26953C29.8047 0.925781 30.6289 0.753906 31.582 0.753906C31.8945 0.753906 32.1953 0.777344 32.4844 0.824219C32.7734 0.863281 33.0547 0.914063 33.3281 0.976562L33.293 3.51953C33.1445 3.48047 32.9883 3.45312 32.8242 3.4375C32.6602 3.42188 32.4688 3.41406 32.25 3.41406C31.8438 3.41406 31.4961 3.48438 31.207 3.625C30.9258 3.75781 30.7109 3.95703 30.5625 4.22266C30.4141 4.48828 30.3398 4.8125 30.3398 5.19531V19ZM32.8711 6.32031V8.71094H25.0547V6.32031H32.8711ZM38.2031 6.32031V19H34.8164V6.32031H38.2031ZM34.6055 3.01562C34.6055 2.52344 34.7773 2.11719 35.1211 1.79688C35.4648 1.47656 35.9258 1.31641 36.5039 1.31641C37.0742 1.31641 37.5312 1.47656 37.875 1.79688C38.2266 2.11719 38.4023 2.52344 38.4023 3.01562C38.4023 3.50781 38.2266 3.91406 37.875 4.23438C37.5312 4.55469 37.0742 4.71484 36.5039 4.71484C35.9258 4.71484 35.4648 4.55469 35.1211 4.23438C34.7773 3.91406 34.6055 3.50781 34.6055 3.01562ZM44.2969 9.02734V19H40.9219V6.32031H44.0859L44.2969 9.02734ZM43.8047 12.2148H42.8906C42.8906 11.2773 43.0117 10.4336 43.2539 9.68359C43.4961 8.92578 43.8359 8.28125 44.2734 7.75C44.7109 7.21094 45.2305 6.80078 45.832 6.51953C46.4414 6.23047 47.1211 6.08594 47.8711 6.08594C48.4648 6.08594 49.0078 6.17188 49.5 6.34375C49.9922 6.51562 50.4141 6.78906 50.7656 7.16406C51.125 7.53906 51.3984 8.03516 51.5859 8.65234C51.7812 9.26953 51.8789 10.0234 51.8789 10.9141V19H48.4805V10.9023C48.4805 10.3398 48.4023 9.90234 48.2461 9.58984C48.0898 9.27734 47.8594 9.05859 47.5547 8.93359C47.2578 8.80078 46.8906 8.73438 46.4531 8.73438C46 8.73438 45.6055 8.82422 45.2695 9.00391C44.9414 9.18359 44.668 9.43359 44.4492 9.75391C44.2383 10.0664 44.0781 10.4336 43.9688 10.8555C43.8594 11.2773 43.8047 11.7305 43.8047 12.2148ZM58.0078 6.32031V19H54.6211V6.32031H58.0078ZM54.4102 3.01562C54.4102 2.52344 54.582 2.11719 54.9258 1.79688C55.2695 1.47656 55.7305 1.31641 56.3086 1.31641C56.8789 1.31641 57.3359 1.47656 57.6797 1.79688C58.0312 2.11719 58.207 2.52344 58.207 3.01562C58.207 3.50781 58.0312 3.91406 57.6797 4.23438C57.3359 4.55469 56.8789 4.71484 56.3086 4.71484C55.7305 4.71484 55.2695 4.55469 54.9258 4.23438C54.582 3.91406 54.4102 3.50781 54.4102 3.01562ZM67.0078 6.32031V8.71094H59.625V6.32031H67.0078ZM61.4531 3.19141H64.8281V15.1797C64.8281 15.5469 64.875 15.8281 64.9688 16.0234C65.0703 16.2188 65.2188 16.3555 65.4141 16.4336C65.6094 16.5039 65.8555 16.5391 66.1523 16.5391C66.3633 16.5391 66.5508 16.5312 66.7148 16.5156C66.8867 16.4922 67.0312 16.4688 67.1484 16.4453L67.1602 18.9297C66.8711 19.0234 66.5586 19.0977 66.2227 19.1523C65.8867 19.207 65.5156 19.2344 65.1094 19.2344C64.3672 19.2344 63.7188 19.1133 63.1641 18.8711C62.6172 18.6211 62.1953 18.2227 61.8984 17.6758C61.6016 17.1289 61.4531 16.4102 61.4531 15.5195V3.19141ZM72.6914 17.5703L76.0547 6.32031H79.6758L74.5781 20.9102C74.4688 21.2305 74.3203 21.5742 74.1328 21.9414C73.9531 22.3086 73.707 22.6562 73.3945 22.9844C73.0898 23.3203 72.7031 23.5938 72.2344 23.8047C71.7734 24.0156 71.207 24.1211 70.5352 24.1211C70.2148 24.1211 69.9531 24.1016 69.75 24.0625C69.5469 24.0234 69.3047 23.9688 69.0234 23.8984V21.4258C69.1094 21.4258 69.1992 21.4258 69.293 21.4258C69.3867 21.4336 69.4766 21.4375 69.5625 21.4375C70.0078 21.4375 70.3711 21.3867 70.6523 21.2852C70.9336 21.1836 71.1602 21.0273 71.332 20.8164C71.5039 20.6133 71.6406 20.3477 71.7422 20.0195L72.6914 17.5703ZM71.2852 6.32031L74.0391 15.5078L74.5195 19.082L72.2227 19.3281L67.6641 6.32031H71.2852ZM93.8906 11.5117H89.5078L89.4844 9.09766H93.1641C93.8125 9.09766 94.3438 9.01562 94.7578 8.85156C95.1719 8.67969 95.4805 8.43359 95.6836 8.11328C95.8945 7.78516 96 7.38672 96 6.91797C96 6.38672 95.8984 5.95703 95.6953 5.62891C95.5 5.30078 95.1914 5.0625 94.7695 4.91406C94.3555 4.76562 93.8203 4.69141 93.1641 4.69141H90.7266V19H87.2109V1.9375H93.1641C94.1562 1.9375 95.043 2.03125 95.8242 2.21875C96.6133 2.40625 97.2812 2.69141 97.8281 3.07422C98.375 3.45703 98.793 3.94141 99.082 4.52734C99.3711 5.10547 99.5156 5.79297 99.5156 6.58984C99.5156 7.29297 99.3555 7.94141 99.0352 8.53516C98.7227 9.12891 98.2266 9.61328 97.5469 9.98828C96.875 10.3633 95.9961 10.5703 94.9102 10.6094L93.8906 11.5117ZM93.7383 19H88.5469L89.918 16.2578H93.7383C94.3555 16.2578 94.8594 16.1602 95.25 15.9648C95.6406 15.7617 95.9297 15.4883 96.1172 15.1445C96.3047 14.8008 96.3984 14.4062 96.3984 13.9609C96.3984 13.4609 96.3125 13.0273 96.1406 12.6602C95.9766 12.293 95.7109 12.0117 95.3438 11.8164C94.9766 11.6133 94.4922 11.5117 93.8906 11.5117H90.5039L90.5273 9.09766H94.7461L95.5547 10.0469C96.5938 10.0312 97.4297 10.2148 98.0625 10.5977C98.7031 10.9727 99.168 11.4609 99.457 12.0625C99.7539 12.6641 99.9023 13.3086 99.9023 13.9961C99.9023 15.0898 99.6641 16.0117 99.1875 16.7617C98.7109 17.5039 98.0117 18.0625 97.0898 18.4375C96.1758 18.8125 95.0586 19 93.7383 19ZM109.172 16.1406V10.4922C109.172 10.0859 109.105 9.73828 108.973 9.44922C108.84 9.15234 108.633 8.92188 108.352 8.75781C108.078 8.59375 107.723 8.51172 107.285 8.51172C106.91 8.51172 106.586 8.57812 106.312 8.71094C106.039 8.83594 105.828 9.01953 105.68 9.26172C105.531 9.49609 105.457 9.77344 105.457 10.0938H102.082C102.082 9.55469 102.207 9.04297 102.457 8.55859C102.707 8.07422 103.07 7.64844 103.547 7.28125C104.023 6.90625 104.59 6.61328 105.246 6.40234C105.91 6.19141 106.652 6.08594 107.473 6.08594C108.457 6.08594 109.332 6.25 110.098 6.57812C110.863 6.90625 111.465 7.39844 111.902 8.05469C112.348 8.71094 112.57 9.53125 112.57 10.5156V15.9414C112.57 16.6367 112.613 17.207 112.699 17.6523C112.785 18.0898 112.91 18.4727 113.074 18.8008V19H109.664C109.5 18.6562 109.375 18.2266 109.289 17.7109C109.211 17.1875 109.172 16.6641 109.172 16.1406ZM109.617 11.2773L109.641 13.1875H107.754C107.309 13.1875 106.922 13.2383 106.594 13.3398C106.266 13.4414 105.996 13.5859 105.785 13.7734C105.574 13.9531 105.418 14.1641 105.316 14.4062C105.223 14.6484 105.176 14.9141 105.176 15.2031C105.176 15.4922 105.242 15.7539 105.375 15.9883C105.508 16.2148 105.699 16.3945 105.949 16.5273C106.199 16.6523 106.492 16.7148 106.828 16.7148C107.336 16.7148 107.777 16.6133 108.152 16.4102C108.527 16.207 108.816 15.957 109.02 15.6602C109.23 15.3633 109.34 15.082 109.348 14.8164L110.238 16.2461C110.113 16.5664 109.941 16.8984 109.723 17.2422C109.512 17.5859 109.242 17.9102 108.914 18.2148C108.586 18.5117 108.191 18.7578 107.73 18.9531C107.27 19.1406 106.723 19.2344 106.09 19.2344C105.285 19.2344 104.555 19.0742 103.898 18.7539C103.25 18.4258 102.734 17.9766 102.352 17.4062C101.977 16.8281 101.789 16.1719 101.789 15.4375C101.789 14.7734 101.914 14.1836 102.164 13.668C102.414 13.1523 102.781 12.7188 103.266 12.3672C103.758 12.0078 104.371 11.7383 105.105 11.5586C105.84 11.3711 106.691 11.2773 107.66 11.2773H109.617ZM118.477 9.02734V19H115.102V6.32031H118.266L118.477 9.02734ZM117.984 12.2148H117.07C117.07 11.2773 117.191 10.4336 117.434 9.68359C117.676 8.92578 118.016 8.28125 118.453 7.75C118.891 7.21094 119.41 6.80078 120.012 6.51953C120.621 6.23047 121.301 6.08594 122.051 6.08594C122.645 6.08594 123.188 6.17188 123.68 6.34375C124.172 6.51562 124.594 6.78906 124.945 7.16406C125.305 7.53906 125.578 8.03516 125.766 8.65234C125.961 9.26953 126.059 10.0234 126.059 10.9141V19H122.66V10.9023C122.66 10.3398 122.582 9.90234 122.426 9.58984C122.27 9.27734 122.039 9.05859 121.734 8.93359C121.438 8.80078 121.07 8.73438 120.633 8.73438C120.18 8.73438 119.785 8.82422 119.449 9.00391C119.121 9.18359 118.848 9.43359 118.629 9.75391C118.418 10.0664 118.258 10.4336 118.148 10.8555C118.039 11.2773 117.984 11.7305 117.984 12.2148ZM132 0.988281V19H128.625V0.988281H132ZM139.992 6.32031L134.484 12.6016L131.531 15.5898L130.301 13.1523L132.645 10.1758L135.938 6.32031H139.992ZM136.488 19L132.738 13.1406L135.07 11.1016L140.379 19H136.488Z" fill="#FFD600"/>
</svg>
